<svg xmlns:xlink="http://www.w3.org/1999/xlink" xmlns="http://www.w3.org/2000/svg" viewBox="0 0 1400 48" preserveAspectRatio="xMidYMid slice" aria-hidden="true" focusable="false" width="1400" height="48"><path d="M786 48h-41l-14-3-14-1-24-3-26-1-18-1-12-1h-7l-16-1-11-1h-57l-30-1-17-2-26-1h-30l-16-1-21 2h-7l-26 1h-26l-13-1-14-1-19-2-22-1-9-1h-19l-14-1h-26l-7-1-8-1-12 5-22-2-17-1-16-1-11-1H86l-24-8-15-2-2-4-24-5L0 0h1400l-28 13-9 7-20 2-13 8h-6l-20 2-23-5h-19l-35 4-10 2-9-1-30 1-14 2-18 1-14-2h-8l-17-2h-12l-28-2-26 2-12 1-22 2-23 4-13 1-13-1h-13l-22 3h-1l-19 1h-44l-38 2-17 1h-2l-11 1-5 1z" fill="#E6E1F0"></path></svg>
