<svg xmlns:xlink="http://www.w3.org/1999/xlink" xmlns="http://www.w3.org/2000/svg" viewBox="0 0 29 25" fill="none" aria-hidden="true" focusable="false" width="29" height="25">
<path fill-rule="evenodd" clip-rule="evenodd" d="M5.25632 4.09766C4.94769 4.09766 4.6517 4.22559 4.43347 4.45331C4.21524 4.68104 4.09263 4.98989 4.09263 5.31194V7.83392H1.76525C1.45662 7.83392 1.16063 7.96185 0.942399 8.18958C0.724165 8.4173 0.601562 8.72616 0.601562 9.04821C0.601562 9.37025 0.724165 9.67911 0.942399 9.90684C1.16063 10.1346 1.45662 10.2625 1.76525 10.2625H6.42001C6.72864 10.2625 7.02463 10.3904 7.24287 10.6181C7.4611 10.8459 7.5837 11.1547 7.5837 11.4768C7.5837 11.7988 7.4611 12.1077 7.24287 12.3354C7.02463 12.5631 6.72864 12.6911 6.42001 12.6911H2.92894C2.62031 12.6911 2.32432 12.819 2.10609 13.0467C1.88786 13.2744 1.76525 13.5833 1.76525 13.9053C1.76525 14.2274 1.88786 14.5363 2.10609 14.764C2.32432 14.9917 2.62031 15.1196 2.92894 15.1196H5.25632C5.56495 15.1196 5.86094 15.2476 6.07918 15.4753C6.29741 15.703 6.42001 16.0119 6.42001 16.3339C6.42001 16.656 6.29741 16.9648 6.07918 17.1925C5.86094 17.4203 5.56495 17.5482 5.25632 17.5482H4.09263V19.8834C4.09263 20.2054 4.21524 20.5143 4.43347 20.742C4.6517 20.9697 4.94769 21.0977 5.25632 21.0977H27.7246C28.3669 21.0977 28.8883 20.5537 28.8883 19.8834V5.31194C28.8883 4.64166 28.3669 4.09766 27.7246 4.09766H5.25632ZM26.413 8.93167L19.219 14.7687C18.7989 15.11 18.2089 15.11 17.7888 14.7687L10.5961 8.93289C9.93393 8.39496 10.0166 7.32639 10.7532 6.90746C11.1593 6.67553 11.6597 6.71803 12.0251 7.01432L17.7912 11.693L18.5045 12.2734L24.9851 7.01553C25.3505 6.71924 25.8509 6.67674 26.257 6.90867C26.9925 7.32639 27.0751 8.39496 26.413 8.93167Z" fill="#9560B8"></path>
</svg>
