<svg xmlns:xlink="http://www.w3.org/1999/xlink" xmlns="http://www.w3.org/2000/svg" viewBox="0 0 25 25" fill="none" aria-hidden="true" focusable="false" width="25" height="25">
<path fill-rule="evenodd" clip-rule="evenodd" d="M23.4537 12.0025L18.6283 3.69132C18.5222 3.51048 18.3695 3.36037 18.1857 3.25614C18.0018 3.15191 17.7933 3.09725 17.5812 3.09766H1.59697C1.27703 3.09766 0.970191 3.22275 0.743957 3.44541C0.517723 3.66808 0.390625 3.97008 0.390625 4.28497V18.5327C0.390625 18.8476 0.517723 19.1496 0.743957 19.3723C0.970191 19.595 1.27703 19.7201 1.59697 19.7201H4.37164C4.51008 20.3911 4.87995 20.9943 5.41859 21.4276C5.95724 21.8609 6.63152 22.0977 7.32719 22.0977C8.02287 22.0977 8.69715 21.8609 9.23579 21.4276C9.77443 20.9943 10.1443 20.3911 10.2827 19.7201H15.2288C15.3672 20.3911 15.7371 20.9943 16.2757 21.4276C16.8144 21.8609 17.4887 22.0977 18.1843 22.0977C18.88 22.0977 19.5543 21.8609 20.0929 21.4276C20.6316 20.9943 21.0014 20.3911 21.1399 19.7201H22.4065C22.7265 19.7201 23.0333 19.595 23.2596 19.3723C23.4858 19.1496 23.6129 18.8476 23.6129 18.5327V12.5962C23.6136 12.388 23.5587 12.1832 23.4537 12.0025ZM6.3219 20.6072C6.61947 20.8029 6.96932 20.9074 7.32721 20.9074C7.80713 20.9074 8.26739 20.7197 8.60674 20.3857C8.94609 20.0517 9.13674 19.5987 9.13674 19.1264C9.13674 18.7741 9.03061 18.4298 8.83178 18.1369C8.63294 17.844 8.35034 17.6158 8.01969 17.481C7.68904 17.3462 7.32521 17.3109 6.97419 17.3796C6.62318 17.4483 6.30075 17.618 6.04769 17.867C5.79462 18.1161 5.62228 18.4335 5.55246 18.7789C5.48264 19.1244 5.51847 19.4825 5.65543 19.8079C5.79239 20.1334 6.02432 20.4115 6.3219 20.6072ZM13.9477 5.47227V11.4088H19.4607L16.0286 5.47227H13.9477ZM17.179 20.6072C17.4766 20.8029 17.8265 20.9074 18.1843 20.9074C18.6643 20.9074 19.1245 20.7197 19.4639 20.3857C19.8032 20.0517 19.9939 19.5987 19.9939 19.1264C19.9939 18.7741 19.8877 18.4298 19.6889 18.1369C19.4901 17.844 19.2075 17.6158 18.8768 17.481C18.5462 17.3462 18.1823 17.3109 17.8313 17.3796C17.4803 17.4483 17.1579 17.618 16.9048 17.867C16.6518 18.1161 16.4794 18.4335 16.4096 18.7789C16.3398 19.1244 16.3756 19.4825 16.5126 19.8079C16.6495 20.1334 16.8815 20.4115 17.179 20.6072Z" fill="#9560B8"></path>
</svg>
